<svg width="256" height="256" xmlns="http://www.w3.org/2000/svg">

 <g>
  <title>background</title>
  <rect fill="none" id="canvas_background" height="402" width="582" y="-1" x="-1"/>
 </g>
 <g>
  <title>Layer 1</title>
  <path fill="#ffffff" id="svg_1" d="m91.474,33.861l-89.6,89.6c-2.5,2.5 -2.5,6.551 0,9.051l89.6,89.6c2.5,2.5 6.551,2.5 9.051,0s2.5,-6.742 0,-9.242l-78.676,-78.87l227.751,0c3.535,0 6.4,-2.466 6.4,-6s-2.865,-6 -6.4,-6l-227.751,0l78.676,-78.881c1.25,-1.25 1.875,-2.993 1.875,-4.629s-0.625,-3.326 -1.875,-4.576c-2.501,-2.501 -6.551,-2.553 -9.051,-0.053z"/>
 </g>
</svg>